<svg id="Layer" enable-background="new 0 0 64 64" height="512" viewBox="0 0 64 64" width="512" xmlns="http://www.w3.org/2000/svg"><circle cx="32" cy="32" fill="#ffffff" r="22"/><g fill="#4ce9f1"><path d="m22.566 27.605c-.771.792-.753 2.058.039 2.828l6.562 6.382c.756.766 1.762 1.188 2.833 1.188s2.077-.422 2.805-1.159l6.59-6.41c.792-.77.81-2.036.039-2.828-.77-.793-2.037-.808-2.828-.039l-6.621 6.41-6.59-6.41c-.791-.77-2.059-.754-2.829.038z"/><path d="m29.283 12.19c1.762-.252 3.672-.252 5.434 0 .097.014.191.021.286.021.979 0 1.834-.72 1.977-1.717.156-1.094-.604-2.107-1.696-2.263-2.137-.305-4.43-.305-6.566 0-1.093.156-1.853 1.169-1.696 2.263.155 1.093 1.179 1.855 2.261 1.696z"/><path d="m32 56c13.233 0 24-10.767 24-24 0-9.061-5.016-17.253-13.09-21.381-.984-.503-2.188-.112-2.691.87-.502.984-.112 2.188.871 2.691 6.729 3.441 10.91 10.269 10.91 17.82 0 11.028-8.972 20-20 20s-20-8.972-20-20c0-7.551 4.181-14.379 10.91-17.819.983-.503 1.373-1.708.871-2.691-.503-.982-1.707-1.373-2.691-.87-8.074 4.127-13.09 12.319-13.09 21.38 0 13.233 10.767 24 24 24z"/></g></svg>