<?xml version="1.0" encoding="iso-8859-1"?>
<!-- Generator: Adobe Illustrator 19.0.0, SVG Export Plug-In . SVG Version: 6.00 Build 0)  -->
<svg version="1.1" id="Layer_1" xmlns="http://www.w3.org/2000/svg" xmlns:xlink="http://www.w3.org/1999/xlink" x="0px" y="0px"
	 viewBox="0 0 512 512" style="enable-background:new 0 0 512 512;" xml:space="preserve">
<path style="fill:#4ce9f1" d="M318.785,335.921c-7.689,0-14.918,2.994-20.356,8.432l-59.166,59.166V234.97
	c0-15.873-12.913-28.786-28.786-28.786s-28.786,12.913-28.786,28.786v168.548l-59.166-59.166
	c-5.437-5.437-12.666-8.432-20.356-8.432s-14.918,2.994-20.355,8.432c-5.437,5.437-8.431,12.666-8.431,20.356
	s2.994,14.918,8.432,20.355l108.306,108.306c5.437,5.437,12.666,8.432,20.355,8.432s14.917-2.994,20.355-8.432l108.306-108.306
	c5.437-5.437,8.432-12.665,8.432-20.355s-2.993-14.918-8.431-20.356C333.704,338.915,326.474,335.921,318.785,335.921z"/>
<g>
	<path style="fill:#b5e6ef;" d="M210.479,512c-10.412,0-20.203-4.055-27.566-11.418L74.605,392.276
		c-7.363-7.365-11.418-17.154-11.418-27.567c0-10.413,4.055-20.203,11.417-27.566c7.365-7.364,17.155-11.419,27.567-11.419
		c10.413,0,20.204,4.055,27.567,11.418l41.754,41.755V234.97c0-21.497,17.489-38.985,38.985-38.985s38.985,17.489,38.985,38.985
		v143.925l41.753-41.753c7.365-7.364,17.154-11.419,27.567-11.419c10.412,0,20.203,4.055,27.566,11.418
		c7.364,7.365,11.418,17.155,11.418,27.567c0,10.413-4.055,20.204-11.418,27.567L238.044,500.581
		C230.68,507.945,220.891,512,210.479,512z M102.172,346.12c-4.965,0-9.632,1.934-13.144,5.444
		c-3.51,3.511-5.443,8.179-5.443,13.144c0,4.965,1.934,9.632,5.444,13.144l108.306,108.305c3.511,3.511,8.179,5.444,13.143,5.444
		s9.632-1.934,13.144-5.444l108.305-108.305c3.511-3.511,5.444-8.179,5.444-13.144c0-4.965-1.934-9.633-5.444-13.145
		c-3.51-3.51-8.178-5.443-13.143-5.443c-4.965,0-9.633,1.934-13.144,5.444l-59.165,59.166c-2.917,2.918-7.305,3.791-11.115,2.211
		c-3.811-1.579-6.296-5.297-6.296-9.423V234.97c0-10.249-8.338-18.587-18.587-18.587s-18.587,8.338-18.587,18.587v168.548
		c0,4.125-2.486,7.844-6.296,9.423c-3.811,1.578-8.198,0.706-11.115-2.211l-59.165-59.166
		C111.805,348.054,107.137,346.12,102.172,346.12z"/>
</g>
<path style="fill:#4ce9f1;" d="M430.183,126.937L321.877,18.631c-5.437-5.437-12.666-8.432-20.356-8.432s-14.917,2.994-20.355,8.432
	L172.86,126.937c-5.437,5.436-8.432,12.665-8.432,20.355s2.994,14.918,8.432,20.356c5.437,5.437,12.666,8.432,20.355,8.432
	c7.689,0,14.918-2.994,20.355-8.432l59.166-59.166V277.03c0,15.873,12.913,28.786,28.786,28.786s28.786-12.913,28.786-28.786
	V108.482l59.166,59.166c5.437,5.437,12.666,8.432,20.356,8.432s14.918-2.994,20.355-8.432c5.437-5.437,8.431-12.666,8.431-20.356
	C438.614,139.603,435.62,132.374,430.183,126.937z"/>
<path style="fill:#b5e6ef;" d="M301.521,316.015c-21.497,0-38.985-17.489-38.985-38.985V133.105l-41.753,41.754
	c-7.365,7.364-17.154,11.419-27.567,11.419s-20.203-4.055-27.566-11.418c-7.364-7.364-11.419-17.154-11.419-27.567
	c0-10.414,4.056-20.205,11.42-27.567L273.954,11.419C281.32,4.055,291.109,0,301.521,0s20.203,4.055,27.566,11.418l108.307,108.306
	l0,0c7.363,7.365,11.418,17.154,11.418,27.566c0,10.412-4.055,20.203-11.417,27.566c-7.365,7.364-17.155,11.419-27.567,11.419
	c-10.413,0-20.204-4.055-27.567-11.418l-41.753-41.755v143.925C340.507,298.527,323.018,316.015,301.521,316.015z M272.737,98.282
	c1.315,0,2.639,0.254,3.901,0.777c3.811,1.579,6.296,5.297,6.296,9.423V277.03c0,10.249,8.338,18.587,18.587,18.587
	c10.249,0,18.587-8.338,18.587-18.587V108.482c0-4.125,2.486-7.844,6.296-9.423c3.809-1.579,8.199-0.706,11.115,2.211l59.165,59.166
	c3.511,3.511,8.179,5.443,13.144,5.443s9.632-1.934,13.144-5.444c3.51-3.511,5.443-8.179,5.443-13.144
	c0-4.965-1.934-9.632-5.444-13.144L314.665,25.842c-3.511-3.51-8.179-5.443-13.144-5.443c-4.964,0-9.632,1.934-13.144,5.444
	L180.073,134.148c-3.512,3.511-5.444,8.179-5.444,13.144s1.934,9.633,5.444,13.144c3.511,3.511,8.179,5.444,13.143,5.444
	c4.964,0,9.632-1.934,13.144-5.444l59.165-59.166C267.474,99.319,270.083,98.282,272.737,98.282z"/>
<g>
</g>
<g>
</g>
<g>
</g>
<g>
</g>
<g>
</g>
<g>
</g>
<g>
</g>
<g>
</g>
<g>
</g>
<g>
</g>
<g>
</g>
<g>
</g>
<g>
</g>
<g>
</g>
<g>
</g>
</svg>
