<svg xmlns="http://www.w3.org/2000/svg" xmlns:xlink="http://www.w3.org/1999/xlink" viewBox="0 0 525.47 336.88"><defs><style>.cls-1{fill:none;}.cls-2{clip-path:url(#clip-path);}.cls-3{fill:#03c9d3;}</style><clipPath id="clip-path" transform="translate(-43.72 -138.19)"><rect class="cls-1" width="597.03" height="597.03"/></clipPath></defs><title>Fichier 6</title><g id="Calque_2" data-name="Calque 2"><g id="Calque_1-2" data-name="Calque 1"><g class="cls-2"><g id="_0xp" data-name="0xp"><path class="cls-3" d="M235.6,258.67c0,74.12-35.15,120.48-91.95,120.48S51.7,332.79,51.7,258.67c0-74.46,35.15-120.48,92-120.48S235.6,184.21,235.6,258.67Zm-51.09,0c0-13.2-2.86-79.53-40.86-79.53-38.42,0-41.28,66.33-41.28,79.53s2.86,79.19,41.28,79.19C181.65,337.86,184.51,271.87,184.51,258.67Z" transform="translate(-43.72 -138.19)"/><path class="cls-3" d="M375.56,378.36H334.84l-26.6-40.17-26.32,40.17H241.2l45.06-67-42.88-63.78h41l23.88,36.91,24.16-36.91h41L330.5,311.32Z" transform="translate(-43.72 -138.19)"/><path class="cls-3" d="M521.56,311.29c0,37.73-25.24,67.58-63,67.58a49.93,49.93,0,0,1-34.74-13.57V475.07h-36.1V245.88h36.1V257c8.95-8.15,20.89-13,34.74-13C496.32,244,521.56,273.56,521.56,311.29Zm-36.1,0c0-19.54-11.12-34.47-30.67-34.47s-30.93,14.93-30.93,34.47,11.4,34.47,30.93,34.47S485.46,330.83,485.46,311.29Z" transform="translate(-43.72 -138.19)"/><circle class="cls-3" cx="486.6" cy="227.39" r="13.4"/></g><g id="Barre_XP" data-name="Barre XP"><polygon class="cls-3" points="335.86 294.62 12.89 294.62 12.89 262.17 335.86 262.17 335.86 251.19 0 251.19 0 305.6 335.86 305.6 335.86 294.62"/><polygon class="cls-3" points="387.26 251.19 387.26 262.17 512.58 262.17 512.58 294.62 387.26 294.62 387.26 305.6 525.47 305.6 525.47 251.19 387.26 251.19"/><rect class="cls-3" x="20.05" y="267.32" width="10.98" height="23.07"/></g></g></g></g></svg>